<svg xmlns="http://www.w3.org/2000/svg" xmlns:xlink="http://www.w3.org/1999/xlink" x="0px" y="0px" width="64px" height="64px" viewBox="0 0 64 64"><g transform="translate(0, 0)"><path d="M59,7H5a3,3,0,0,0-3,3V54a3,3,0,0,0,3,3H59a3,3,0,0,0,3-3V10A3,3,0,0,0,59,7ZM5,9H59a1,1,0,0,1,1,1V37.472L46.729,23.316a1,1,0,0,0-1.436-.023L27.734,40.853l3.349,6.73L15.673,33.26a1,1,0,0,0-1.38.033L4,43.586V10A1,1,0,0,1,5,9Z" fill="#444444"></path><circle data-color="color-2" cx="24" cy="21" r="6" fill="#444444"></circle></g></svg>